<svg xmlns="http://www.w3.org/2000/svg" version="1.1" xmlns:xlink="http://www.w3.org/1999/xlink" xmlns:svgjs="http://svgjs.com/svgjs" width="1440" height="560" preserveAspectRatio="none" viewBox="0 0 1440 560"><g mask="url(&quot;#SvgjsMask1012&quot;)" fill="none"><rect width="1440" height="560" x="0" y="0" fill="rgba(3, 3, 40, 1)"></rect><path d="M280 132C217.85 98.35 187.6 41.95 187.6 0C187.6 -24.05 233.8 0 280 0C350 0 350 0 420 0C490 0 490 0 560 0C585.2 0 610.4 -9.36 610.4 0C610.4 12.36 587.67 25.17 560 43.45C492.47 88.08 495.16 102.05 420 125.82C355.16 146.33 334.05 161.26 280 132" stroke="rgba(11, 88, 38, 1)" stroke-width="2"></path><path d="M1400 403.03C1389.84 403.03 1381.33 410.14 1381.33 420C1381.33 434.18 1389.16 451.11 1400 451.11C1412.5 451.11 1428 433.49 1428 420C1428 409.45 1413.18 403.03 1400 403.03" stroke="rgba(11, 88, 38, 1)" stroke-width="2"></path><path d="M71.63 0C71.63 40.99 19.21 123.2 0 123.2C-16.61 123.2 -22.65 38.95 0 0C13.17 -22.65 71.63 -20.61 71.63 0" stroke="rgba(11, 88, 38, 1)" stroke-width="2"></path><path d="M280 32C263.09 23.51 257.6 10.17 257.6 0C257.6 -5.83 268.8 0 280 0C350 0 350 0 420 0C471.93 0 523.87 -17.95 523.87 0C523.87 22.81 477.39 73.99 420 81.52C355.46 89.99 344.29 64.27 280 32" stroke="rgba(11, 88, 38, 1)" stroke-width="2"></path><path d="M765.23 140C765.23 73.8 786.72 21.92 840 5.71C894.1 -10.75 908.08 69.09 980 74.67C1048.08 79.96 1053.85 57.13 1120 27.45C1137.06 19.8 1128.84 3.45 1146.42 0C1198.84 -10.28 1203.21 0 1260 0C1330 0 1330 0 1400 0C1470 0 1505 -35 1540 0C1575 35 1540 70 1540 140C1540 202.22 1560.03 217.71 1540 264.44C1530.03 287.71 1510.18 272.99 1480 280C1440.18 289.25 1433.27 275.34 1400 296.97C1325.6 345.34 1272.38 352.81 1264.67 420C1257.28 484.32 1371.24 516.98 1369.8 560C1368.9 586.98 1314.9 560 1260 560C1225.43 560 1214.8 579.25 1190.86 560C1144.8 522.97 1158.58 501.11 1120 447.45C1108.25 431.11 1090.21 434.72 1090.21 420C1090.21 403.05 1105.11 402.05 1120 384.1C1163.19 332.05 1206.38 325.81 1206.38 280C1206.38 244.76 1167.4 241.54 1120 222C1054.21 194.88 1046.88 177.68 980 186.67C906.88 196.5 896.71 271.96 840 259.64C789.32 248.63 765.23 200.76 765.23 140" stroke="rgba(11, 88, 38, 1)" stroke-width="2"></path><path d="M1260 100.33C1233.97 103.21 1218.97 117.49 1218.97 140C1218.97 171.32 1227.29 193.95 1260 208C1317.8 232.84 1348.07 239.29 1400 217.78C1430.14 205.29 1424.14 175.3 1424.14 140C1424.14 126.41 1414.9 123.6 1400 120C1332.83 103.76 1324.48 93.21 1260 100.33" stroke="rgba(11, 88, 38, 1)" stroke-width="2"></path><path d="M40 280C72.23 230.81 89.19 206.32 140 206.32C194.09 206.32 233.14 229.14 249.8 280C268.14 335.98 201.01 357.51 210 420C216.11 462.51 236.79 471.28 280 490C341.79 516.78 362.06 485.47 420 511C441.49 520.47 438.85 541.97 438.85 560C438.85 566.47 429.42 560 420 560C350 560 350 560 280 560C210 560 210 560 140 560C105.97 560 93.07 581.13 71.94 560C23.07 511.13 8.3 492.73 0 420C-7.67 352.73 2.23 337.65 40 280" stroke="rgba(11, 88, 38, 1)" stroke-width="2"></path><path d="M319.49 280C319.49 243.04 364.74 228.34 420 215.74C485 200.91 492.78 208.95 560 225.14C626.22 241.08 686.88 246.54 686.88 280C686.88 317.16 629.72 341.4 560 366.38C496.28 389.21 480.47 397.33 420 375.61C360.21 354.14 319.49 322.98 319.49 280" stroke="rgba(11, 88, 38, 1)" stroke-width="2"></path><path d="M727.45 560C727.45 535.72 789.74 473.03 840 473.03C878.26 473.03 904.49 532.75 904.49 560C904.49 576.23 872.24 560 840 560C783.72 560 727.45 579.21 727.45 560" stroke="rgba(11, 88, 38, 1)" stroke-width="2"></path><path d="M1477 560C1477 539.03 1521.93 490 1540 490C1553.43 490 1556.58 541.58 1540 560C1525.08 576.58 1477 574.03 1477 560" stroke="rgba(11, 88, 38, 1)" stroke-width="2"></path><path d="M30.93 0C30.93 17.7 8.29 53.2 0 53.2C-7.17 53.2 -9.78 16.82 0 0C5.69 -9.78 30.93 -8.9 30.93 0" stroke="rgba(11, 88, 38, 1)" stroke-width="2"></path><path d="M420 37.22C383.34 37.22 342.63 9.79 342.63 0C342.63 -8.82 381.32 0 420 0C443.71 0 467.42 -8.19 467.42 0C467.42 10.42 445.74 37.22 420 37.22" stroke="rgba(11, 88, 38, 1)" stroke-width="2"></path><path d="M805 140C805 109.01 814.97 77.14 840 77.14C879.14 77.14 933.33 109.79 933.33 140C933.33 169.22 879.94 196 840 196C815.77 196 805 168.44 805 140" stroke="rgba(11, 88, 38, 1)" stroke-width="2"></path><path d="M1037.04 140C1037.04 120.51 1082.55 96.08 1120 96.08C1143.34 96.08 1158.62 119.56 1158.62 140C1158.62 157.52 1141.92 172 1120 172C1081.13 172 1037.04 158.47 1037.04 140" stroke="rgba(11, 88, 38, 1)" stroke-width="2"></path><path d="M1260 42C1231 38.91 1212.45 12 1212.45 0C1212.45 -9 1236.22 0 1260 0C1330 0 1330 0 1400 0C1412.5 0 1425 -4.38 1425 0C1425 5.62 1415.2 16.13 1400 20C1332.7 37.13 1324.78 48.91 1260 42" stroke="rgba(11, 88, 38, 1)" stroke-width="2"></path><path d="M102.5 280C102.5 262.09 120.95 252.37 140 252.37C160.29 252.37 181.18 261.65 181.18 280C181.18 309.33 159.9 347.74 140 347.74C120.56 347.74 102.5 309.77 102.5 280" stroke="rgba(11, 88, 38, 1)" stroke-width="2"></path><path d="M409.23 280C409.23 276.04 413.69 273.43 420 273.11C489.08 269.64 490.69 269.4 560 272.43C569.44 272.84 577.5 275.38 577.5 280C577.5 285.12 570.34 291.24 560 291.91C491.59 296.36 488.15 295.62 420 290.24C412.77 289.67 409.23 284.6 409.23 280" stroke="rgba(11, 88, 38, 1)" stroke-width="2"></path><path d="M120.56 560C120.56 539.9 124.27 506.15 140 506.15C160.92 506.15 193.85 544.23 193.85 560C193.85 571.15 166.93 560 140 560C130.28 560 120.56 566.83 120.56 560" stroke="rgba(11, 88, 38, 1)" stroke-width="2"></path><path d="M796.08 560C796.08 550.53 820.39 526.06 840 526.06C854.93 526.06 865.17 549.36 865.17 560C865.17 566.33 852.59 560 840 560C818.04 560 796.08 567.5 796.08 560" stroke="rgba(11, 88, 38, 1)" stroke-width="2"></path><path d="M1234.07 560C1234.07 541.22 1244.28 506.15 1260 506.15C1277.83 506.15 1301.18 543.25 1301.18 560C1301.18 570.17 1280.59 560 1260 560C1247.03 560 1234.07 568.15 1234.07 560" stroke="rgba(11, 88, 38, 1)" stroke-width="2"></path></g><defs><mask id="SvgjsMask1012"><rect width="1440" height="560" fill="#ffffff"></rect></mask></defs></svg>