<svg xmlns="http://www.w3.org/2000/svg" version="1.1" xmlns:xlink="http://www.w3.org/1999/xlink" xmlns:svgjs="http://svgjs.com/svgjs" width="1440" height="560" preserveAspectRatio="none" viewBox="0 0 1440 560"><g mask="url(&quot;#SvgjsMask1126&quot;)" fill="none"><rect width="1440" height="560" x="0" y="0" fill="rgba(77, 18, 123, 1)"></rect><path d="M0,484.96C87.962,468.985,165.732,420.042,230.018,357.915C286.44,303.388,299.865,222.582,340.777,155.628C389.062,76.607,478.098,20.836,491.938,-70.73C507.264,-172.128,496.624,-295.993,419.204,-363.243C340.982,-431.19,220.131,-397.545,116.521,-396.833C39.9,-396.306,-30.511,-374.894,-105.599,-359.636C-188.922,-342.704,-277.08,-347.88,-348.838,-302.27C-434.719,-247.683,-527.371,-178.465,-547.555,-78.726C-567.847,21.548,-496.276,114.198,-451.757,206.311C-408.21,296.411,-375.978,399.965,-290.805,452.501C-206.074,504.764,-97.951,502.749,0,484.96" fill="#380d5a"></path><path d="M1440 968.924C1532.669 970.9159999999999 1631.762 1029.634 1712.057 983.329 1792.314 937.046 1807.105 828.835 1835.72 740.719 1861.4479999999999 661.492 1888.437 579.374 1869.587 498.235 1851.424 420.052 1777.32 372.71299999999997 1734.459 304.85 1681.676 221.279 1677.211 97.553 1588.714 53.52600000000001 1500.655 9.716999999999985 1393.917 54.935 1301.892 89.649 1214.891 122.46800000000002 1138.516 175.72699999999998 1077.883 246.224 1017.412 316.533 980.454 400.825 957.073 490.56600000000003 931.318 589.417 893.986 697.057 936.184 790.085 978.399 883.1510000000001 1079.0520000000001 937.607 1175.358 971.7919999999999 1260.214 1001.913 1349.978 966.989 1440 968.924" fill="#62179c"></path></g><defs><mask id="SvgjsMask1126"><rect width="1440" height="560" fill="#ffffff"></rect></mask></defs></svg>